<svg xmlns="http://www.w3.org/2000/svg" width="412.26" height="154.794" viewBox="0 0 412.26 154.794">
  <g id="IdentidadDroxi" transform="translate(0.362 0.145)">
    <g id="Group_6" data-name="Group 6" transform="translate(3.467 3.467)">
      <rect id="Rectangle_3" data-name="Rectangle 3" width="404.819" height="147.354" fill="rgba(0,0,0,0)" stroke="rgba(0,0,0,0)" stroke-width="1"/>
      <g id="Group_4" data-name="Group 4" transform="translate(0.198 54.207)" opacity="0">
        <path id="Path_3218" data-name="Path 3218" d="M52.263,103.4H56.6v4.34" transform="translate(-27.126 -103.396)" fill="none" stroke="#606060" stroke-miterlimit="10" stroke-width="0.723"/>
        <line id="Line_1" data-name="Line 1" y2="50.992" transform="translate(29.477 -6.027)" fill="none" stroke="#606060" stroke-miterlimit="10" stroke-width="0.723" stroke-dasharray="9.271 9.271"/>
        <path id="Path_3219" data-name="Path 3219" d="M56.6,172.635v4.34h-4.34" transform="translate(-27.126 -138.73)" fill="none" stroke="#606060" stroke-miterlimit="10" stroke-width="0.723"/>
        <path id="Path_3220" data-name="Path 3220" d="M49.044,176.975H44.7v-6.842a19.358,19.358,0,0,1-3.091,3.036" transform="translate(-27.126 -138.73)" fill="rgba(0,0,0,0)" stroke="#606060" stroke-miterlimit="10" stroke-width="0.723"/>
        <path id="Path_3221" data-name="Path 3221" d="M33.621,176.928a27.319,27.319,0,0,1-6.469.741A27.9,27.9,0,0,1,13.418,174.3a24.212,24.212,0,0,1-9.569-9.569,30.8,30.8,0,0,1,0-28.411,24.311,24.311,0,0,1,9.569-9.519,27.912,27.912,0,0,1,13.734-3.372,25.176,25.176,0,0,1,9.619,1.785c.139.057.277.115.414.175" transform="translate(-4.043 -131.079)" fill="rgba(0,0,0,0)" stroke="#606060" stroke-miterlimit="10" stroke-width="0.723" stroke-dasharray="8.9 8.9"/>
        <path id="Path_3222" data-name="Path 3222" d="M41.038,127.609a19.611,19.611,0,0,1,3.17,2.958v-4.34" transform="translate(-20.877 -114.932)" fill="rgba(0,0,0,0)" stroke="#606060" stroke-miterlimit="10" stroke-width="0.723"/>
        <line id="Line_2" data-name="Line 2" y1="9.245" transform="translate(22.979 7.422)" fill="none" stroke="#606060" stroke-miterlimit="10" stroke-width="0.723" stroke-dasharray="6.163 6.163"/>
        <path id="Path_3223" data-name="Path 3223" d="M44.208,107.737V103.4h4.34" transform="translate(-27.126 -103.396)" fill="rgba(0,0,0,0)" stroke="#606060" stroke-miterlimit="10" stroke-width="0.723"/>
        <path id="Path_3224" data-name="Path 3224" d="M16.485,165.026a35.346,35.346,0,0,0,.858-5.8q.316-3.768.316-8.727t-.316-8.726a35.346,35.346,0,0,0-.858-5.8q-.542-2.032-1.219-2.033t-1.219,2.033a35.36,35.36,0,0,0-.858,5.8q-.316,3.77-.316,8.726t.316,8.727a35.36,35.36,0,0,0,.858,5.8q.542,2.032,1.219,2.032T16.485,165.026Z" transform="translate(-0.378 -133.938)" fill="rgba(0,0,0,0)" stroke="#606060" stroke-miterlimit="10" stroke-width="0.723" stroke-dasharray="8.546 8.546"/>
      </g>
      <g id="Group_1" data-name="Group 1" transform="translate(375.144 54.207)" opacity="0">
        <path id="Path_3225" data-name="Path 3225" d="M767.445,103.4h4.34v4.34" transform="translate(-742.308 -103.396)" fill="rgba(0,0,0,0)" stroke="#606060" stroke-miterlimit="10" stroke-width="0.723"/>
        <line id="Line_3" data-name="Line 3" y2="50.992" transform="translate(29.477 -6.027)" fill="none" stroke="#606060" stroke-miterlimit="10" stroke-width="0.723" stroke-dasharray="9.271 9.271"/>
        <path id="Path_3226" data-name="Path 3226" d="M771.786,172.635v4.34h-4.34" transform="translate(-742.308 -138.73)" fill="rgba(0,0,0,0)" stroke="#606060" stroke-miterlimit="10" stroke-width="0.723"/>
        <path id="Path_3227" data-name="Path 3227" d="M764.226,176.975h-4.34v-6.842a19.316,19.316,0,0,1-3.091,3.036" transform="translate(-742.308 -138.73)" fill="rgba(0,0,0,0)" stroke="#606060" stroke-miterlimit="10" stroke-width="0.723"/>
        <path id="Path_3228" data-name="Path 3228" d="M748.8,176.928a27.317,27.317,0,0,1-6.468.741A27.9,27.9,0,0,1,728.6,174.3a24.209,24.209,0,0,1-9.568-9.569,30.8,30.8,0,0,1,0-28.411A24.309,24.309,0,0,1,728.6,126.8a27.913,27.913,0,0,1,13.735-3.372,25.171,25.171,0,0,1,9.618,1.785c.139.057.277.115.414.175" transform="translate(-719.225 -131.079)" fill="rgba(0,0,0,0)" stroke="#606060" stroke-miterlimit="10" stroke-width="0.723" stroke-dasharray="8.9 8.9"/>
        <path id="Path_3229" data-name="Path 3229" d="M756.22,127.609a19.612,19.612,0,0,1,3.17,2.958v-4.34" transform="translate(-736.059 -114.932)" fill="rgba(0,0,0,0)" stroke="#606060" stroke-miterlimit="10" stroke-width="0.723"/>
        <line id="Line_4" data-name="Line 4" y1="9.245" transform="translate(22.979 7.422)" fill="none" stroke="#606060" stroke-miterlimit="10" stroke-width="0.723" stroke-dasharray="6.163 6.163"/>
        <path id="Path_3230" data-name="Path 3230" d="M759.39,107.737V103.4h4.34" transform="translate(-742.308 -103.396)" fill="rgba(0,0,0,0)" stroke="#606060" stroke-miterlimit="10" stroke-width="0.723"/>
        <path id="Path_3231" data-name="Path 3231" d="M731.667,165.026a35.34,35.34,0,0,0,.858-5.8q.316-3.768.316-8.727t-.316-8.726a35.341,35.341,0,0,0-.858-5.8q-.542-2.032-1.219-2.033t-1.219,2.033a35.362,35.362,0,0,0-.858,5.8q-.316,3.77-.316,8.726t.316,8.727a35.362,35.362,0,0,0,.858,5.8q.542,2.032,1.219,2.032T731.667,165.026Z" transform="translate(-715.56 -133.938)" fill="rgba(0,0,0,0)" stroke="#606060" stroke-miterlimit="10" stroke-width="0.723" stroke-dasharray="8.546 8.546"/>
      </g>
      <g id="Group_3" data-name="Group 3" transform="translate(192.247 117.678)" opacity="0">
        <path id="Path_3232" data-name="Path 3232" d="M366.7,228.8v-4.34h4.34" transform="translate(-366.697 -224.463)" fill="rgba(0,0,0,0)" stroke="#606060" stroke-miterlimit="10" stroke-width="0.723"/>
        <line id="Line_5" data-name="Line 5" x2="50.992" transform="translate(-6.027 0)" fill="none" stroke="#606060" stroke-miterlimit="10" stroke-width="0.723" stroke-dasharray="9.271 9.271"/>
        <path id="Path_3233" data-name="Path 3233" d="M435.935,224.463h4.34v4.34" transform="translate(-402.03 -224.463)" fill="rgba(0,0,0,0)" stroke="#606060" stroke-miterlimit="10" stroke-width="0.723"/>
        <path id="Path_3234" data-name="Path 3234" d="M440.275,232.022v4.34h-6.842a19.358,19.358,0,0,1,3.036,3.091" transform="translate(-402.03 -224.463)" fill="rgba(0,0,0,0)" stroke="#606060" stroke-miterlimit="10" stroke-width="0.723"/>
        <path id="Path_3235" data-name="Path 3235" d="M440.228,247.445a27.318,27.318,0,0,1,.741,6.468,27.9,27.9,0,0,1-3.371,13.735,24.2,24.2,0,0,1-9.569,9.568,30.8,30.8,0,0,1-28.411,0,24.3,24.3,0,0,1-9.519-9.568,27.924,27.924,0,0,1-3.372-13.735,25.171,25.171,0,0,1,1.785-9.618q.086-.208.175-.414" transform="translate(-394.379 -247.546)" fill="rgba(0,0,0,0)" stroke="#606060" stroke-miterlimit="10" stroke-width="0.723" stroke-dasharray="8.9 8.9"/>
        <path id="Path_3236" data-name="Path 3236" d="M390.909,240.028a19.611,19.611,0,0,1,2.958-3.17h-4.34" transform="translate(-378.232 -230.712)" fill="rgba(0,0,0,0)" stroke="#606060" stroke-miterlimit="10" stroke-width="0.723"/>
        <line id="Line_6" data-name="Line 6" x1="9.245" transform="translate(7.422 6.498)" fill="none" stroke="#606060" stroke-miterlimit="10" stroke-width="0.723" stroke-dasharray="6.163 6.163"/>
        <path id="Path_3237" data-name="Path 3237" d="M371.037,236.858H366.7v-4.34" transform="translate(-366.697 -224.463)" fill="rgba(0,0,0,0)" stroke="#606060" stroke-miterlimit="10" stroke-width="0.723"/>
        <path id="Path_3238" data-name="Path 3238" d="M428.327,237.833a35.355,35.355,0,0,0-5.8-.858q-3.768-.316-8.727-.316t-8.726.316a35.341,35.341,0,0,0-5.8.858q-2.031.542-2.033,1.219t2.033,1.219a35.357,35.357,0,0,0,5.8.858q3.77.316,8.726.316t8.727-.316a35.372,35.372,0,0,0,5.8-.858q2.031-.542,2.031-1.219T428.327,237.833Z" transform="translate(-397.238 -224.463)" fill="rgba(0,0,0,0)" stroke="#606060" stroke-miterlimit="10" stroke-width="0.723" stroke-dasharray="8.546 8.546"/>
      </g>
      <g id="Group_2" data-name="Group 2" transform="translate(192.247 0.198)" opacity="0">
        <path id="Path_3239" data-name="Path 3239" d="M366.7,4.717V.377h4.34" transform="translate(-366.697 -0.377)" fill="rgba(0,0,0,0)" stroke="#606060" stroke-miterlimit="10" stroke-width="0.723"/>
        <line id="Line_7" data-name="Line 7" x2="50.992" transform="translate(-6.027 0)" fill="none" stroke="#606060" stroke-miterlimit="10" stroke-width="0.723" stroke-dasharray="9.271 9.271"/>
        <path id="Path_3240" data-name="Path 3240" d="M435.935.377h4.34v4.34" transform="translate(-402.03 -0.377)" fill="rgba(0,0,0,0)" stroke="#606060" stroke-miterlimit="10" stroke-width="0.723"/>
        <path id="Path_3241" data-name="Path 3241" d="M440.275,7.936v4.34h-6.842a19.358,19.358,0,0,1,3.036,3.091" transform="translate(-402.03 -0.377)" fill="rgba(0,0,0,0)" stroke="#606060" stroke-miterlimit="10" stroke-width="0.723"/>
        <path id="Path_3242" data-name="Path 3242" d="M440.228,23.36a27.318,27.318,0,0,1,.741,6.468A27.9,27.9,0,0,1,437.6,43.563a24.2,24.2,0,0,1-9.569,9.568,30.8,30.8,0,0,1-28.411,0,24.3,24.3,0,0,1-9.519-9.568,27.924,27.924,0,0,1-3.372-13.735,25.171,25.171,0,0,1,1.785-9.618q.086-.208.175-.414" transform="translate(-394.379 -23.461)" fill="rgba(0,0,0,0)" stroke="#606060" stroke-miterlimit="10" stroke-width="0.723" stroke-dasharray="8.9 8.9"/>
        <path id="Path_3243" data-name="Path 3243" d="M390.909,15.942a19.611,19.611,0,0,1,2.958-3.17h-4.34" transform="translate(-378.232 -6.626)" fill="rgba(0,0,0,0)" stroke="#606060" stroke-miterlimit="10" stroke-width="0.723"/>
        <line id="Line_8" data-name="Line 8" x1="9.245" transform="translate(7.422 6.498)" fill="none" stroke="#606060" stroke-miterlimit="10" stroke-width="0.723" stroke-dasharray="6.163 6.163"/>
        <path id="Path_3244" data-name="Path 3244" d="M371.037,12.772H366.7V8.432" transform="translate(-366.697 -0.377)" fill="rgba(0,0,0,0)" stroke="#606060" stroke-miterlimit="10" stroke-width="0.723"/>
        <path id="Path_3245" data-name="Path 3245" d="M428.327,13.747a35.357,35.357,0,0,0-5.8-.858q-3.768-.316-8.727-.316t-8.726.316a35.342,35.342,0,0,0-5.8.858q-2.031.542-2.033,1.219t2.033,1.219a35.359,35.359,0,0,0,5.8.858q3.77.316,8.726.316t8.727-.316a35.374,35.374,0,0,0,5.8-.858q2.031-.542,2.031-1.219T428.327,13.747Z" transform="translate(-397.238 -0.377)" fill="rgba(0,0,0,0)" stroke="#606060" stroke-miterlimit="10" stroke-width="0.723" stroke-dasharray="8.546 8.546"/>
      </g>
    </g>
    <path id="Path_3246" data-name="Path 3246" d="M536.471,144.606h-167v-88h167a14.443,14.443,0,0,1,14.443,14.443v59.117a14.443,14.443,0,0,1-14.443,14.443" transform="translate(-172.303 -23.461)" fill="#fff" stroke="rgba(0,0,0,0)" stroke-width="1"/>
    <path id="Path_3247" data-name="Path 3247" d="M71.167,144.606H220.849v-88H71.167A13.706,13.706,0,0,0,57.461,70.308V130.9a13.706,13.706,0,0,0,13.706,13.706" transform="translate(-23.869 -23.461)" fill="#1f5699" stroke="rgba(0,0,0,0)" stroke-width="1"/>
    <g id="Group_5" data-name="Group 5" transform="translate(56.921 67.178)">
      <path id="Path_3248" data-name="Path 3248" d="M101.96,122.273h6.674a9.068,9.068,0,0,1,1.816.2,8.973,8.973,0,0,1,1.9.626,8.867,8.867,0,0,1,1.816,1.116,7.443,7.443,0,0,1,1.533,1.656,8.279,8.279,0,0,1,1.055,2.233,10.6,10.6,0,0,1,0,5.717,8.264,8.264,0,0,1-1.055,2.233,7.431,7.431,0,0,1-1.533,1.656,8.822,8.822,0,0,1-1.816,1.116,8.915,8.915,0,0,1-1.9.626,9.03,9.03,0,0,1-1.816.2H101.96Zm2.061,15.459h3.926a9.394,9.394,0,0,0,2.773-.393,5.937,5.937,0,0,0,2.208-1.214,5.715,5.715,0,0,0,1.473-2.1,8.991,8.991,0,0,0,0-6.135,5.719,5.719,0,0,0-1.473-2.1,5.945,5.945,0,0,0-2.208-1.214,9.394,9.394,0,0,0-2.773-.393h-3.926Z" transform="translate(-101.96 -121.88)" fill="#fff" stroke="rgba(0,0,0,0)" stroke-width="1"/>
      <path id="Path_3249" data-name="Path 3249" d="M136.505,135.961q0-.785-.049-1.472t-.049-1.251h1.816q0,.466.025.933t.025.957h.049a3.325,3.325,0,0,1,.553-.81,3.991,3.991,0,0,1,.846-.7,4.523,4.523,0,0,1,1.1-.49,4.572,4.572,0,0,1,1.325-.185,3.3,3.3,0,0,1,.393.025,1.724,1.724,0,0,1,.393.1L142.811,135a3.552,3.552,0,0,0-1.03-.147,2.907,2.907,0,0,0-2.564,1.14,5.385,5.385,0,0,0-.8,3.129v5.594h-1.914Z" transform="translate(-118.348 -126.956)" fill="#fff" stroke="rgba(0,0,0,0)" stroke-width="1"/>
      <path id="Path_3250" data-name="Path 3250" d="M151.009,138.979a6.246,6.246,0,0,1,.467-2.454,5.8,5.8,0,0,1,1.276-1.9,5.672,5.672,0,0,1,1.938-1.239,7.033,7.033,0,0,1,4.908,0,5.687,5.687,0,0,1,1.938,1.239,5.811,5.811,0,0,1,1.276,1.9,6.693,6.693,0,0,1,0,4.908,5.8,5.8,0,0,1-1.276,1.9,5.679,5.679,0,0,1-1.938,1.239,7.033,7.033,0,0,1-4.908,0,5.664,5.664,0,0,1-1.938-1.239,5.8,5.8,0,0,1-1.276-1.9,6.248,6.248,0,0,1-.467-2.454m2.061,0a4.86,4.86,0,0,0,.282,1.681,3.879,3.879,0,0,0,2.11,2.257,4.429,4.429,0,0,0,3.362,0,3.875,3.875,0,0,0,2.11-2.257,5.14,5.14,0,0,0,0-3.362,3.875,3.875,0,0,0-2.11-2.257,4.429,4.429,0,0,0-3.362,0,3.879,3.879,0,0,0-2.11,2.257,4.865,4.865,0,0,0-.282,1.681" transform="translate(-125.294 -126.956)" fill="#fff" stroke="rgba(0,0,0,0)" stroke-width="1"/>
      <path id="Path_3251" data-name="Path 3251" d="M190.932,144.206a6.528,6.528,0,0,1-1.607,4.772,6.241,6.241,0,0,1-4.65,1.632,8.968,8.968,0,0,1-3.055-.491,7.225,7.225,0,0,1-2.588-1.693l1.374-1.571a6.667,6.667,0,0,0,1.926,1.484,5.893,5.893,0,0,0,4.466.123,3.373,3.373,0,0,0,1.337-1.031,3.93,3.93,0,0,0,.687-1.485,7.573,7.573,0,0,0,.2-1.742v-1.473h-.049a4.155,4.155,0,0,1-1.791,1.619,5.288,5.288,0,0,1-2.257.515,6.752,6.752,0,0,1-2.479-.441A5.774,5.774,0,0,1,180.5,143.2a5.432,5.432,0,0,1-1.251-1.865,6.156,6.156,0,0,1-.442-2.356,6.88,6.88,0,0,1,.442-2.527,5.292,5.292,0,0,1,1.239-1.9,5.435,5.435,0,0,1,1.927-1.19,7.174,7.174,0,0,1,2.5-.417,5.278,5.278,0,0,1,1.178.135,4.948,4.948,0,0,1,1.141.417,4.11,4.11,0,0,1,.993.711,3.893,3.893,0,0,1,.736.994h.049v-1.963h1.914Zm-10.06-5.227a4.122,4.122,0,0,0,.319,1.632,4.069,4.069,0,0,0,2.159,2.172,3.912,3.912,0,0,0,1.571.319,4.181,4.181,0,0,0,1.742-.343,3.858,3.858,0,0,0,2.086-2.245,4.634,4.634,0,0,0,.27-1.583,4.752,4.752,0,0,0-.295-1.705,3.942,3.942,0,0,0-.834-1.337,3.694,3.694,0,0,0-1.3-.871,4.433,4.433,0,0,0-1.668-.307,4.051,4.051,0,0,0-1.657.331,3.779,3.779,0,0,0-1.276.908,4.179,4.179,0,0,0-.822,1.349,4.678,4.678,0,0,0-.295,1.681" transform="translate(-138.52 -126.956)" fill="#fff" stroke="rgba(0,0,0,0)" stroke-width="1"/>
      <path id="Path_3252" data-name="Path 3252" d="M218.681,142.265q0,.786.049,1.473t.049,1.251h-1.816q0-.466-.025-.932t-.025-.957h-.049a3.3,3.3,0,0,1-.553.809,3.959,3.959,0,0,1-.846.7,4.542,4.542,0,0,1-1.1.491,4.6,4.6,0,0,1-1.325.184,5.047,5.047,0,0,1-1.95-.343,3.654,3.654,0,0,1-1.362-.957,3.866,3.866,0,0,1-.8-1.485,6.668,6.668,0,0,1-.258-1.9v-7.091h1.914v6.9a3.67,3.67,0,0,0,.638,2.282,2.344,2.344,0,0,0,1.987.834,3.718,3.718,0,0,0,1.607-.319,2.851,2.851,0,0,0,1.1-.908,4.089,4.089,0,0,0,.638-1.4,7.2,7.2,0,0,0,.209-1.791v-5.595h1.914Z" transform="translate(-152.726 -127.224)" fill="#fff" stroke="rgba(0,0,0,0)" stroke-width="1"/>
      <path id="Path_3253" data-name="Path 3253" d="M244.348,142.635a5.827,5.827,0,0,1-2.257,1.853,7.165,7.165,0,0,1-2.847.527,5.928,5.928,0,0,1-2.429-.478,5.458,5.458,0,0,1-1.828-1.289,5.634,5.634,0,0,1-1.153-1.914,6.773,6.773,0,0,1-.405-2.356,6.587,6.587,0,0,1,.441-2.441,5.666,5.666,0,0,1,1.227-1.914,5.509,5.509,0,0,1,1.865-1.239,6.156,6.156,0,0,1,2.356-.442,5.861,5.861,0,0,1,2.208.405,4.779,4.779,0,0,1,1.73,1.178,5.291,5.291,0,0,1,1.117,1.889,7.649,7.649,0,0,1,.392,2.54v.613H235.49a4.023,4.023,0,0,0,.355,1.411,4.088,4.088,0,0,0,.8,1.178,3.68,3.68,0,0,0,1.153.8,3.516,3.516,0,0,0,1.448.294,4.583,4.583,0,0,0,2.111-.441,4.8,4.8,0,0,0,1.546-1.3Zm-1.644-4.686a3.3,3.3,0,0,0-.957-2.356,3.437,3.437,0,0,0-2.5-.883,3.536,3.536,0,0,0-3.754,3.239Z" transform="translate(-164.504 -126.956)" fill="#fff" stroke="rgba(0,0,0,0)" stroke-width="1"/>
      <path id="Path_3254" data-name="Path 3254" d="M260.627,135.961q0-.785-.05-1.472t-.048-1.251h1.815q0,.466.025.933c.016.311.025.63.025.957h.048a3.328,3.328,0,0,1,.553-.81,4,4,0,0,1,.846-.7,4.519,4.519,0,0,1,1.1-.49,4.569,4.569,0,0,1,1.325-.185,3.3,3.3,0,0,1,.393.025,1.718,1.718,0,0,1,.393.1L266.932,135a3.546,3.546,0,0,0-1.03-.147,2.906,2.906,0,0,0-2.564,1.14,5.386,5.386,0,0,0-.8,3.129v5.594h-1.914Z" transform="translate(-177.397 -126.956)" fill="#fff" stroke="rgba(0,0,0,0)" stroke-width="1"/>
      <path id="Path_3255" data-name="Path 3255" d="M278.665,121.524h2.7l-3.509,3.534h-1.742Zm-1.816,6.281h1.914v11.484h-1.914Z" transform="translate(-184.81 -121.524)" fill="#fff" stroke="rgba(0,0,0,0)" stroke-width="1"/>
      <path id="Path_3256" data-name="Path 3256" d="M287.673,134.71a5.389,5.389,0,0,1,2.1-1.337,7.354,7.354,0,0,1,2.466-.43,4.86,4.86,0,0,1,3.68,1.2,5.18,5.18,0,0,1,1.129,3.656v4.932q0,.491.049,1.019t.123.969h-1.84a3.99,3.99,0,0,1-.111-.871q-.013-.478-.012-.847h-.049a4.5,4.5,0,0,1-1.509,1.448,4.357,4.357,0,0,1-2.27.564,6.021,6.021,0,0,1-1.656-.221,4.139,4.139,0,0,1-1.349-.65,3.206,3.206,0,0,1-.92-1.067,3.053,3.053,0,0,1-.344-1.473,3.2,3.2,0,0,1,.737-2.233,4.467,4.467,0,0,1,1.828-1.2,8.987,8.987,0,0,1,2.356-.491q1.263-.1,2.319-.1h.736v-.343a2.347,2.347,0,0,0-.748-1.889,3.141,3.141,0,0,0-2.1-.638,5.606,5.606,0,0,0-1.828.307,4.392,4.392,0,0,0-1.582.944Zm5.546,4.49a6.873,6.873,0,0,0-2.92.515,1.75,1.75,0,0,0-1.079,1.693,1.668,1.668,0,0,0,.723,1.533,3.332,3.332,0,0,0,1.8.454,3.532,3.532,0,0,0,1.46-.282,3.077,3.077,0,0,0,1.043-.749,3.235,3.235,0,0,0,.638-1.092,4.46,4.46,0,0,0,.245-1.337V139.2Z" transform="translate(-190.065 -126.956)" fill="#fff" stroke="rgba(0,0,0,0)" stroke-width="1"/>
      <path id="Path_3257" data-name="Path 3257" d="M311.8,141.7a4.83,4.83,0,0,0,1.239,1.129,3.191,3.191,0,0,0,1.705.417,4.227,4.227,0,0,0,.9-.1,2.7,2.7,0,0,0,.822-.319,1.828,1.828,0,0,0,.589-.552,1.407,1.407,0,0,0,.221-.8,1.287,1.287,0,0,0-.209-.761,1.837,1.837,0,0,0-.552-.5,3.13,3.13,0,0,0-.785-.331q-.441-.122-.908-.221-.81-.171-1.546-.393a5.013,5.013,0,0,1-1.288-.576,2.721,2.721,0,0,1-.883-.92,2.834,2.834,0,0,1-.331-1.448,2.894,2.894,0,0,1,.368-1.472,3.185,3.185,0,0,1,.981-1.055,4.791,4.791,0,0,1,1.374-.638,5.6,5.6,0,0,1,1.571-.221,5.263,5.263,0,0,1,2.27.491,3.537,3.537,0,0,1,1.632,1.595l-1.6,1.055a2.968,2.968,0,0,0-.969-.993,2.673,2.673,0,0,0-1.46-.381,3.366,3.366,0,0,0-.8.1,2.484,2.484,0,0,0-.724.294,1.714,1.714,0,0,0-.527.5,1.213,1.213,0,0,0-.209.7.9.9,0,0,0,.233.625,2.052,2.052,0,0,0,.638.455,5.6,5.6,0,0,0,.933.343,11.034,11.034,0,0,0,1.092.245,11.07,11.07,0,0,1,1.448.38,4.2,4.2,0,0,1,1.2.626,2.781,2.781,0,0,1,.81.981,3.22,3.22,0,0,1,.295,1.447,3.318,3.318,0,0,1-.393,1.669,3.253,3.253,0,0,1-1.043,1.117,4.581,4.581,0,0,1-1.472.625,7.231,7.231,0,0,1-1.681.2,6.466,6.466,0,0,1-2.54-.454,4.6,4.6,0,0,1-1.926-1.68Z" transform="translate(-201.064 -126.956)" fill="#fff" stroke="rgba(0,0,0,0)" stroke-width="1"/>
    </g>
    <path id="Path_3268" data-name="Path 3268" d="M12.812,0H332.017a12.812,12.812,0,0,1,12.812,12.812V75a12.812,12.812,0,0,1-12.812,12.812H12.812A12.812,12.812,0,0,1,0,75V12.812A12.812,12.812,0,0,1,12.812,0Z" transform="translate(33.781 33.331)" fill="none" stroke="#1f5699" stroke-width="1.5"/>
    <path id="Path_3258" data-name="Path 3258" d="M454.617,96.165V134.74h-6.238v-3.588a10.043,10.043,0,0,1-3.977,2.964,13.444,13.444,0,0,1-5.225.988,14.627,14.627,0,0,1-7.2-1.767,12.694,12.694,0,0,1-5.017-5.017,16.149,16.149,0,0,1,0-14.894,12.75,12.75,0,0,1,5.017-4.991,14.639,14.639,0,0,1,7.2-1.768,13.2,13.2,0,0,1,5.043.936,10.143,10.143,0,0,1,3.9,2.807V96.165Zm-10.449,32.311a7.7,7.7,0,0,0,2.963-3.041,10.134,10.134,0,0,0,0-9.15,7.7,7.7,0,0,0-2.963-3.041,8.852,8.852,0,0,0-8.422,0,7.7,7.7,0,0,0-2.963,3.041,10.129,10.129,0,0,0,0,9.15,7.7,7.7,0,0,0,2.963,3.041,8.856,8.856,0,0,0,8.422,0" transform="translate(-198.787 -42.282)" fill="#1f5699" stroke="rgba(0,0,0,0)" stroke-width="1"/>
    <path id="Path_3259" data-name="Path 3259" d="M509.726,116.2v6.187a8.224,8.224,0,0,0-1.507-.156,7.85,7.85,0,0,0-5.927,2.21,8.811,8.811,0,0,0-2.131,6.368V144.27h-6.5V116.508h6.186v4.055q2.807-4.367,9.878-4.367" transform="translate(-231.385 -51.811)" fill="#1f5699" stroke="rgba(0,0,0,0)" stroke-width="1"/>
    <path id="Path_3260" data-name="Path 3260" d="M608.317,144.553l-7.123-9.618-7.174,9.618h-7.174l10.814-14.089-10.346-13.672h7.227l6.81,9.1,6.81-9.1h7.018l-10.4,13.569,10.865,14.193Z" transform="translate(-275.716 -52.094)" fill="#1f5699" stroke="rgba(0,0,0,0)" stroke-width="1"/>
    <path id="Path_3261" data-name="Path 3261" d="M646.449,99.871a3.832,3.832,0,0,1,0-5.562,4.173,4.173,0,0,1,2.963-1.118,4.294,4.294,0,0,1,2.963,1.066,3.437,3.437,0,0,1,1.2,2.677,3.922,3.922,0,0,1-1.169,2.886,4.05,4.05,0,0,1-2.989,1.17,4.17,4.17,0,0,1-2.963-1.118m-.312,5.692h6.5v27.761h-6.5Z" transform="translate(-303.502 -40.867)" fill="#1f5699" stroke="rgba(0,0,0,0)" stroke-width="1"/>
    <path id="Path_3262" data-name="Path 3262" d="M575.955,130.443a15.461,15.461,0,0,0-7.769-12.787,2.6,2.6,0,0,0-2.567,4.524,10.223,10.223,0,0,1,5.138,8.456c.009.231.01.465,0,.694l-.025.813,5.2.156.025-.812c.01-.343.009-.695,0-1.044" transform="translate(-264.996 -52.346)" fill="#50b2e7" stroke="rgba(0,0,0,0)" stroke-width="1"/>
    <path id="Path_3263" data-name="Path 3263" d="M530.573,132.623c.084,0,.168,0,.252-.012a2.6,2.6,0,0,0,2.346-2.465,10.222,10.222,0,0,1,5.183-8.428c.2-.113.409-.22.617-.319l.734-.348-2.231-4.7-.734.349c-.312.148-.624.309-.927.479a15.46,15.46,0,0,0-7.839,12.744,2.582,2.582,0,0,0,.806,1.985,2.608,2.608,0,0,0,1.793.715" transform="translate(-247.707 -51.885)" fill="#80c5ed" stroke="rgba(0,0,0,0)" stroke-width="1"/>
    <path id="Path_3264" data-name="Path 3264" d="M553.757,158.82a9.96,9.96,0,0,1-5.165,1.635,10.161,10.161,0,0,1-6.537-2.075l-.646-.494-3.159,4.132.645.494a15.383,15.383,0,0,0,9.323,3.151q.283,0,.567-.01a15.374,15.374,0,0,0,7.808-2.478,2.567,2.567,0,0,0,1.141-1.8,2.6,2.6,0,0,0-3.978-2.555" transform="translate(-252.597 -71.645)" fill="#009de1" stroke="rgba(0,0,0,0)" stroke-width="1"/>
    <path id="Path_3265" data-name="Path 3265" d="M576.388,149.8a2.611,2.611,0,0,0,.095,5.22l.1,0a2.611,2.611,0,1,0-.195-5.217" transform="translate(-269.545 -67.795)" fill="#009de1" stroke="rgba(0,0,0,0)" stroke-width="1"/>
    <path id="Path_3266" data-name="Path 3266" d="M554.893,119.307l.1,0a2.6,2.6,0,1,0-.1,0" transform="translate(-259.273 -50.807)" fill="#50b2e7" stroke="rgba(0,0,0,0)" stroke-width="1"/>
    <path id="Path_3267" data-name="Path 3267" d="M534.882,150a2.58,2.58,0,0,0-1.873-.7,2.61,2.61,0,0,0,.1,5.219l.1,0A2.611,2.611,0,0,0,534.882,150" transform="translate(-248.908 -67.562)" fill="#80c5ed" stroke="rgba(0,0,0,0)" stroke-width="1"/>
  </g>
</svg>
